<mxfile host="app.diagrams.net" modified="2023-07-12T10:20:18.520Z" agent="Mozilla/5.0 (Macintosh; Intel Mac OS X 10.15; rv:109.0) Gecko/20100101 Firefox/115.0" etag="X5ahNiJGDx3ChiV4Dik2" version="21.6.2" type="github">
  <diagram id="C5RBs43oDa-KdzZeNtuy" name="Page-1">
    <mxGraphModel dx="6832" dy="4282" grid="1" gridSize="10" guides="1" tooltips="1" connect="1" arrows="1" fold="1" page="1" pageScale="1" pageWidth="827" pageHeight="1169" math="0" shadow="0">
      <root>
        <mxCell id="WIyWlLk6GJQsqaUBKTNV-0" />
        <mxCell id="WIyWlLk6GJQsqaUBKTNV-1" parent="WIyWlLk6GJQsqaUBKTNV-0" />
        <mxCell id="zkfFHV4jXpPFQw0GAbJ--0" value="USER SYSTEM" style="swimlane;fontStyle=0;align=center;verticalAlign=top;childLayout=stackLayout;horizontal=1;startSize=26;horizontalStack=0;resizeParent=1;resizeLast=0;collapsible=1;marginBottom=0;rounded=0;shadow=0;strokeWidth=1;" parent="WIyWlLk6GJQsqaUBKTNV-1" vertex="1">
          <mxGeometry y="-220" width="600" height="450" as="geometry">
            <mxRectangle x="220" y="-270" width="160" height="26" as="alternateBounds" />
          </mxGeometry>
        </mxCell>
        <mxCell id="zkfFHV4jXpPFQw0GAbJ--1" value=" `id` bigint(20) UNSIGNED NOT NULL,&#xa;  `user_id` int(11) NOT NULL,&#xa;  `uuid` char(36) NOT NULL,&#xa;  `first_name` varchar(191) DEFAULT NULL,&#xa;  `last_name` varchar(191) DEFAULT NULL,&#xa;  `email` varchar(191) NOT NULL,&#xa;  `phone` varchar(30) DEFAULT NULL,&#xa;  `avatar_type` varchar(191) NOT NULL DEFAULT &#39;gravatar&#39;,&#xa;  `avatar_location` varchar(191) DEFAULT NULL,&#xa;  `password` varchar(191) DEFAULT NULL,&#xa;  `password_changed_at` timestamp NULL DEFAULT NULL,&#xa;  `active` tinyint(3) UNSIGNED NOT NULL DEFAULT 1,&#xa;  `confirmation_code` varchar(191) DEFAULT NULL,&#xa;  `confirmed` tinyint(1) NOT NULL DEFAULT 0,&#xa;  `timezone` varchar(191) DEFAULT NULL,&#xa;  `last_login_at` timestamp NULL DEFAULT NULL,&#xa;  `last_login_ip` varchar(191) DEFAULT NULL,&#xa;  `to_be_logged_out` tinyint(1) NOT NULL DEFAULT 0,&#xa;  `status` tinyint(1) NOT NULL DEFAULT 1,&#xa;  `created_by` int(10) UNSIGNED DEFAULT NULL,&#xa;  `updated_by` int(10) UNSIGNED DEFAULT NULL,&#xa;  `is_term_accept` tinyint(1) NOT NULL DEFAULT 0 COMMENT &#39; 0 = not accepted,1 = accepted&#39;,&#xa;  `remember_token` varchar(100) DEFAULT NULL,&#xa;  `created_at` timestamp NULL DEFAULT NULL,&#xa;  `updated_at` timestamp NULL DEFAULT NULL,&#xa;  `deleted_at` timestamp NULL DEFAULT NULL" style="text;align=left;verticalAlign=top;spacingLeft=4;spacingRight=4;overflow=hidden;rotatable=0;points=[[0,0.5],[1,0.5]];portConstraint=eastwest;" parent="zkfFHV4jXpPFQw0GAbJ--0" vertex="1">
          <mxGeometry y="26" width="600" height="384" as="geometry" />
        </mxCell>
        <mxCell id="zkfFHV4jXpPFQw0GAbJ--4" value="" style="line;html=1;strokeWidth=1;align=left;verticalAlign=middle;spacingTop=-1;spacingLeft=3;spacingRight=3;rotatable=0;labelPosition=right;points=[];portConstraint=eastwest;" parent="zkfFHV4jXpPFQw0GAbJ--0" vertex="1">
          <mxGeometry y="410" width="600" height="8" as="geometry" />
        </mxCell>
        <mxCell id="zkfFHV4jXpPFQw0GAbJ--6" value="DATA SISWA" style="swimlane;fontStyle=0;align=center;verticalAlign=top;childLayout=stackLayout;horizontal=1;startSize=26;horizontalStack=0;resizeParent=1;resizeLast=0;collapsible=1;marginBottom=0;rounded=0;shadow=0;strokeWidth=1;" parent="WIyWlLk6GJQsqaUBKTNV-1" vertex="1">
          <mxGeometry x="340" y="360" width="410" height="1670" as="geometry">
            <mxRectangle x="130" y="380" width="160" height="26" as="alternateBounds" />
          </mxGeometry>
        </mxCell>
        <mxCell id="zkfFHV4jXpPFQw0GAbJ--7" value="`id` int(20) UNSIGNED NOT NULL,&#xa;  `nama_lengkap` varchar(250) DEFAULT NULL,&#xa;  `jenis_kelamin` varchar(10) DEFAULT NULL,&#xa;  `nisn` varchar(100) DEFAULT NULL,&#xa;  `tempat_lahir` varchar(250) DEFAULT NULL,&#xa;  `tanggal_lahir` date DEFAULT NULL,&#xa;  `ppdb_id` varchar(250) DEFAULT NULL,&#xa;  `agama` varchar(250) DEFAULT NULL,&#xa;  `alamat_jalan` varchar(250) DEFAULT NULL,&#xa;  `rt` text DEFAULT NULL,&#xa;  `rw` text DEFAULT NULL,&#xa;  `nama_dusun` text DEFAULT NULL,&#xa;  `nama_kelurahan` text DEFAULT NULL,&#xa;  `kecamatan` text DEFAULT NULL,&#xa;  `kode_pos` varchar(250) DEFAULT NULL,&#xa;  `tempat_tinggal` varchar(250) DEFAULT NULL,&#xa;  `moda_transportasi` varchar(250) DEFAULT NULL,&#xa;  `telepon_rumah` varchar(250) DEFAULT NULL,&#xa;  `nomor_hp` varchar(250) DEFAULT NULL,&#xa;  `email` varchar(250) DEFAULT NULL,&#xa;  `no_seri_skhun` text DEFAULT NULL,&#xa;  `nama_ayah` varchar(250) DEFAULT NULL,&#xa;  `tahun_lahir_ayah` varchar(50) DEFAULT NULL,&#xa;  `pendidikan_ayah` varchar(250) DEFAULT NULL,&#xa;  `pekerjaan_ayah` varchar(250) DEFAULT NULL,&#xa;  `penghasilan_bulanan_ayah` varchar(250) DEFAULT NULL,&#xa;  `nik_ayah` varchar(250) DEFAULT NULL,&#xa;  `nama_Ibu` varchar(250) DEFAULT NULL,&#xa;  `tahun_lahir_ibu` varchar(50) DEFAULT NULL,&#xa;  `pendidikan_ibu` varchar(250) DEFAULT NULL,&#xa;  `pekerjaan_ibu` varchar(250) DEFAULT NULL,&#xa;  `penghasilan_bulanan_ibu` varchar(250) DEFAULT NULL,&#xa;  `nik_Ibu` varchar(250) DEFAULT NULL,&#xa;  `nama_wali` varchar(250) DEFAULT NULL,&#xa;  `tahun_lahir_wali` varchar(50) DEFAULT NULL,&#xa;  `pendidikan_wali` varchar(250) DEFAULT NULL,&#xa;  `pekerjaan_wali` varchar(250) DEFAULT NULL,&#xa;  `penghasilan_bulanan_wali` varchar(250) DEFAULT NULL,&#xa;  `nik_wali` varchar(250) DEFAULT NULL,&#xa;  `no_seri_ijazah` text DEFAULT NULL,&#xa;  `kip` varchar(250) DEFAULT NULL,&#xa;  `nomor_kip` varchar(250) DEFAULT NULL,&#xa;  `nama_kip` varchar(250) DEFAULT NULL,&#xa;  `nomor_kks` varchar(250) DEFAULT NULL,&#xa;  `akta_kelahiran` varchar(250) DEFAULT NULL,&#xa;  `bank` varchar(100) DEFAULT NULL,&#xa;  `no_rekening` varchar(250) DEFAULT NULL,&#xa;  `rekening_atas_nama` varchar(250) DEFAULT NULL,&#xa;  `alasan_layak_pip` varchar(250) DEFAULT NULL,&#xa;  `berkebutuhan_khusus` varchar(250) DEFAULT NULL,&#xa;  `asal_sekolah` text DEFAULT NULL,&#xa;  `anak_keberapa` varchar(50) DEFAULT NULL,&#xa;  `berat_badan` varchar(150) DEFAULT NULL,&#xa;  `tinggi_badan` varchar(250) DEFAULT NULL,&#xa;  `saudara_kandung` varchar(250) DEFAULT NULL,&#xa;  `jarak_tempat` varchar(250) DEFAULT NULL,&#xa;  `penerima_kps_pkh` varchar(250) DEFAULT NULL,&#xa;  `tahun_ajaran` varchar(250) DEFAULT NULL,&#xa;  `tanggal_pendaftaran` date DEFAULT NULL,&#xa;  `status_siswa` varchar(10) DEFAULT NULL,&#xa;  `no_formulir` varchar(250) DEFAULT NULL,&#xa;  `kitas` varchar(250) DEFAULT NULL,&#xa;  `kewarganegaraan` varchar(250) DEFAULT NULL,&#xa;  `nama_negara` varchar(250) DEFAULT NULL,&#xa;  `no_kph_pkh` varchar(250) DEFAULT NULL,&#xa;  `usulan_dari_sekolah` varchar(250) DEFAULT NULL,&#xa;  `kartu_KIP` varchar(250) DEFAULT NULL,&#xa;  `berkebutuhan_khusus_ayah` varchar(250) DEFAULT NULL,&#xa;  `berkebutuhan_khusus_ibu` varchar(250) DEFAULT NULL,&#xa;  `jenis_ekstrakulikuler` varchar(250) DEFAULT NULL,&#xa;  `waktu_tempuh` varchar(250) DEFAULT NULL,&#xa;  `berkebutuhan_khusus_2` varchar(250) DEFAULT NULL,&#xa;  `nama_kelurahan_2` varchar(250) DEFAULT NULL,&#xa;  `jurusan` text DEFAULT NULL,&#xa;  `jenis_pendaftaran` text DEFAULT NULL,&#xa;  `nis` text DEFAULT NULL,&#xa;  `tanggal_masuk_sekolah` text DEFAULT NULL,&#xa;  `nomor_peserta_ujian` text DEFAULT NULL,&#xa;  `keluar_karena` text DEFAULT NULL,&#xa;  `tanggal_keluar` text DEFAULT NULL,&#xa;  `alasan` text DEFAULT NULL,&#xa;  `persetujuan` text DEFAULT NULL,&#xa;  `jenis_1` text DEFAULT NULL,&#xa;  `tingkat_1` text DEFAULT NULL,&#xa;  `nama_prestasi_1` text DEFAULT NULL,&#xa;  `tahun_1` text DEFAULT NULL,&#xa;  `penyelenggara_1` text DEFAULT NULL,&#xa;  `jenis_2` text DEFAULT NULL,&#xa;  `tingkat_2` text DEFAULT NULL,&#xa;  `nama_prestasi_2` text DEFAULT NULL,&#xa;  `tahun_2` text DEFAULT NULL,&#xa;  `penyelenggara_2` text DEFAULT NULL,&#xa;  `jenis_3` text DEFAULT NULL,&#xa;  `tingkat_3` text DEFAULT NULL,&#xa;  `nama_prestasi_3` text DEFAULT NULL,&#xa;  `tahun_3` text DEFAULT NULL,&#xa;  `penyelenggara_3` text DEFAULT NULL,&#xa;  `jenis_1_0` text DEFAULT NULL,&#xa;  `keterangan_1` text DEFAULT NULL,&#xa;  `tahun_mulai_1` text DEFAULT NULL,&#xa;  `tahun_selesai_1` text DEFAULT NULL,&#xa;  `jenis_2_0` text DEFAULT NULL,&#xa;  `keterangan_2` text DEFAULT NULL,&#xa;  `tahun_mulai_2` text DEFAULT NULL,&#xa;  `tahun_selesai_2` text DEFAULT NULL,&#xa;  `jenis_3_0` varchar(250) DEFAULT NULL,&#xa;  `keterangan_3` varchar(250) DEFAULT NULL,&#xa;  `tahun_mulai_3` varchar(250) DEFAULT NULL,&#xa;  `tahun_selesai_3` varchar(250) DEFAULT NULL,&#xa;  `sekolah` varchar(50) DEFAULT NULL,&#xa;  `unit` varchar(50) NOT NULL,&#xa;  `input_by` varchar(250) DEFAULT NULL,&#xa;  `created_at` date NOT NULL DEFAULT current_timestamp(),&#xa;  `updated_at` timestamp NULL DEFAULT NULL" style="text;align=left;verticalAlign=top;spacingLeft=4;spacingRight=4;overflow=hidden;rotatable=0;points=[[0,0.5],[1,0.5]];portConstraint=eastwest;" parent="zkfFHV4jXpPFQw0GAbJ--6" vertex="1">
          <mxGeometry y="26" width="410" height="1610" as="geometry" />
        </mxCell>
        <mxCell id="zkfFHV4jXpPFQw0GAbJ--9" value="" style="line;html=1;strokeWidth=1;align=left;verticalAlign=middle;spacingTop=-1;spacingLeft=3;spacingRight=3;rotatable=0;labelPosition=right;points=[];portConstraint=eastwest;" parent="zkfFHV4jXpPFQw0GAbJ--6" vertex="1">
          <mxGeometry y="1636" width="410" height="8" as="geometry" />
        </mxCell>
        <mxCell id="zkfFHV4jXpPFQw0GAbJ--12" value="" style="endArrow=block;endSize=10;endFill=0;shadow=0;strokeWidth=1;rounded=0;edgeStyle=elbowEdgeStyle;elbow=vertical;" parent="WIyWlLk6GJQsqaUBKTNV-1" source="r1qEbPDYCdab6uhuSibT-14" target="zkfFHV4jXpPFQw0GAbJ--0" edge="1">
          <mxGeometry width="160" relative="1" as="geometry">
            <mxPoint x="200" y="203" as="sourcePoint" />
            <mxPoint x="200" y="203" as="targetPoint" />
          </mxGeometry>
        </mxCell>
        <mxCell id="zkfFHV4jXpPFQw0GAbJ--13" value="DATA SISWA 2" style="swimlane;fontStyle=0;align=center;verticalAlign=top;childLayout=stackLayout;horizontal=1;startSize=26;horizontalStack=0;resizeParent=1;resizeLast=0;collapsible=1;marginBottom=0;rounded=0;shadow=0;strokeWidth=1;" parent="WIyWlLk6GJQsqaUBKTNV-1" vertex="1">
          <mxGeometry x="810" y="360" width="370" height="755" as="geometry">
            <mxRectangle x="340" y="380" width="170" height="26" as="alternateBounds" />
          </mxGeometry>
        </mxCell>
        <mxCell id="zkfFHV4jXpPFQw0GAbJ--14" value=" `id` int(11) UNSIGNED NOT NULL,&#xa;  `ppdb_id` varchar(25) DEFAULT NULL,&#xa;  `email` varchar(50) DEFAULT NULL,&#xa;  `nama_orang_tua` varchar(100) DEFAULT NULL,&#xa;  `alamat_orang_tua` varchar(100) DEFAULT NULL,&#xa;  `uang_pangkal_up_2` varchar(100) DEFAULT NULL,&#xa;  `spp_bulan_juli_2023` varchar(100) DEFAULT NULL,&#xa;  `spp_setiap_bulan` varchar(100) DEFAULT NULL,&#xa;  `sudah_melaksanakan_tes` varchar(100) DEFAULT NULL,&#xa;  `diterima_di_sekolah_negeri` varchar(100) DEFAULT NULL,&#xa;  `sudah_bersekolah_di_avicenna` varchar(100) DEFAULT NULL,&#xa;  `sudah_bersekolah_di_avicenna_2` varchar(100) DEFAULT NULL,&#xa;  `tata_tertib_sekolah` varchar(100) DEFAULT NULL,&#xa;  `aktivitas_foto_video` varchar(100) DEFAULT NULL,&#xa;  `didik_diijinkan` varchar(100) DEFAULT NULL,&#xa;  `baca_dan_pahami` varchar(100) DEFAULT NULL,&#xa;  `nama_calon_murid` varchar(100) DEFAULT NULL,&#xa;  `kelas` varchar(100) DEFAULT NULL,&#xa;  `persetujuan_tata_tertib` varchar(100) DEFAULT NULL,&#xa;  `jasmani` varchar(100) DEFAULT NULL,&#xa;  `laki_laki` varchar(100) DEFAULT NULL,&#xa;  `perempuan` varchar(100) DEFAULT NULL,&#xa;  `tempat_lahir` varchar(100) DEFAULT NULL,&#xa;  `tanggal_lahir` varchar(100) DEFAULT NULL,&#xa;  `berat_badan` varchar(100) DEFAULT NULL,&#xa;  `tinggi_badan` varchar(100) DEFAULT NULL,&#xa;  `golongan_darah` varchar(100) DEFAULT NULL,&#xa;  `catatan_imunisasi` varchar(100) DEFAULT NULL,&#xa;  `imunisasi` varchar(100) DEFAULT NULL,&#xa;  `imunisasi_lengkap` varchar(100) DEFAULT NULL,&#xa;  `gangguan_dan_kelainan` varchar(100) DEFAULT NULL,&#xa;  `tidak_ada_gangguan` varchar(100) DEFAULT NULL,&#xa;  `berbahaya` varchar(100) DEFAULT NULL,&#xa;  `tidak_berbahaya` varchar(100) DEFAULT NULL,&#xa;  `kode_registrasi` varchar(100) DEFAULT NULL,&#xa;  `unit` varchar(250) DEFAULT NULL,&#xa;  `sekolah` varchar(250) DEFAULT NULL,&#xa;  `kelas_utama` varchar(250) DEFAULT NULL,&#xa;  `sub_kelas` varchar(250) DEFAULT NULL,&#xa;  `nama_kepala_sekolah` varchar(250) DEFAULT NULL,&#xa;  `nama_wali_kelas` varchar(250) DEFAULT NULL,&#xa;  `nama_wali_kelas_2` varchar(250) DEFAULT NULL,&#xa;  `nisn` varchar(250) DEFAULT NULL,&#xa;  `nik_siswa` varchar(250) DEFAULT NULL,&#xa;  `status_siswa` varchar(250) DEFAULT NULL,&#xa;  `keterangan` varchar(250) DEFAULT NULL,&#xa;  `show_table` int(11) DEFAULT NULL,&#xa;  `updated_at` timestamp NULL DEFAULT NULL,&#xa;  `updated_by` varchar(50) DEFAULT NULL,&#xa;  `created_at` timestamp NULL DEFAULT NULL" style="text;align=left;verticalAlign=top;spacingLeft=4;spacingRight=4;overflow=hidden;rotatable=0;points=[[0,0.5],[1,0.5]];portConstraint=eastwest;" parent="zkfFHV4jXpPFQw0GAbJ--13" vertex="1">
          <mxGeometry y="26" width="370" height="714" as="geometry" />
        </mxCell>
        <mxCell id="zkfFHV4jXpPFQw0GAbJ--15" value="" style="line;html=1;strokeWidth=1;align=left;verticalAlign=middle;spacingTop=-1;spacingLeft=3;spacingRight=3;rotatable=0;labelPosition=right;points=[];portConstraint=eastwest;" parent="zkfFHV4jXpPFQw0GAbJ--13" vertex="1">
          <mxGeometry y="740" width="370" height="8" as="geometry" />
        </mxCell>
        <mxCell id="r1qEbPDYCdab6uhuSibT-133" value="" style="edgeStyle=orthogonalEdgeStyle;rounded=0;orthogonalLoop=1;jettySize=auto;html=1;entryX=-0.004;entryY=0.371;entryDx=0;entryDy=0;entryPerimeter=0;exitX=1.003;exitY=0.403;exitDx=0;exitDy=0;exitPerimeter=0;" edge="1" parent="WIyWlLk6GJQsqaUBKTNV-1" source="wsBFLtOQU4uTYkTnuhKc-1" target="wsBFLtOQU4uTYkTnuhKc-4">
          <mxGeometry relative="1" as="geometry" />
        </mxCell>
        <mxCell id="wsBFLtOQU4uTYkTnuhKc-0" value="DATA SISWA 3" style="swimlane;fontStyle=0;align=center;verticalAlign=top;childLayout=stackLayout;horizontal=1;startSize=26;horizontalStack=0;resizeParent=1;resizeLast=0;collapsible=1;marginBottom=0;rounded=0;shadow=0;strokeWidth=1;" parent="WIyWlLk6GJQsqaUBKTNV-1" vertex="1">
          <mxGeometry x="1250" y="360" width="580" height="518" as="geometry">
            <mxRectangle x="340" y="380" width="170" height="26" as="alternateBounds" />
          </mxGeometry>
        </mxCell>
        <mxCell id="wsBFLtOQU4uTYkTnuhKc-1" value=" `id` int(20) UNSIGNED NOT NULL,&#xa;  `ppdb_id` varchar(100) DEFAULT NULL,&#xa;  `yang_lain` varchar(100) DEFAULT NULL,&#xa;  `normal_tidak_gangguan` varchar(100) DEFAULT NULL,&#xa;  `kompilasi_ketika_melahirkan` varchar(100) DEFAULT NULL,&#xa;  `tidak_ada_cacat` varchar(100) DEFAULT NULL,&#xa;  `cacat_bawaan` varchar(100) DEFAULT NULL,&#xa;  `normal_1` varchar(100) DEFAULT NULL,&#xa;  `terlambat_1` varchar(100) DEFAULT NULL,&#xa;  `normal_2` varchar(100) DEFAULT NULL,&#xa;  `terlambat_2` varchar(100) DEFAULT NULL,&#xa;  `normal_3` varchar(100) DEFAULT NULL,&#xa;  `terlambat_3` varchar(100) DEFAULT NULL,&#xa;  `normal_4` varchar(100) DEFAULT NULL,&#xa;  `terlambat_4` varchar(100) DEFAULT NULL,&#xa;  `normal_5` varchar(100) DEFAULT NULL,&#xa;  `terlambat_5` varchar(100) DEFAULT NULL,&#xa;  `ada` varchar(100) DEFAULT NULL,&#xa;  `tidak_ada` varchar(100) DEFAULT NULL,&#xa;  `ya_pernah` varchar(100) DEFAULT NULL,&#xa;  `tidak_pernah` varchar(100) DEFAULT NULL,&#xa;  `ya_riwayat_kejang` varchar(100) DEFAULT NULL,&#xa;  `tidak_riwayat_kejang` varchar(100) DEFAULT NULL,&#xa;  `riwayat_penyakit_diderita` varchar(100) DEFAULT NULL,&#xa;  `rawat_rumah_sakit` varchar(100) DEFAULT NULL,&#xa;  `catatan_lain` varchar(100) DEFAULT NULL,&#xa;  `sekolah_asal` varchar(100) DEFAULT NULL,&#xa;  `brand` varchar(100) DEFAULT NULL,&#xa;  `kegiatan_sekolah` varchar(100) DEFAULT NULL,&#xa;  `media_cetak` varchar(100) DEFAULT NULL,&#xa;  `media_elektronik` varchar(100) DEFAULT NULL,&#xa;  `media_sosial` varchar(100) DEFAULT NULL,&#xa;  `created_at` timestamp NOT NULL DEFAULT current_timestamp() ON UPDATE current_timestamp()" style="text;align=left;verticalAlign=top;spacingLeft=4;spacingRight=4;overflow=hidden;rotatable=0;points=[[0,0.5],[1,0.5]];portConstraint=eastwest;" parent="wsBFLtOQU4uTYkTnuhKc-0" vertex="1">
          <mxGeometry y="26" width="580" height="484" as="geometry" />
        </mxCell>
        <mxCell id="wsBFLtOQU4uTYkTnuhKc-2" value="" style="line;html=1;strokeWidth=1;align=left;verticalAlign=middle;spacingTop=-1;spacingLeft=3;spacingRight=3;rotatable=0;labelPosition=right;points=[];portConstraint=eastwest;" parent="wsBFLtOQU4uTYkTnuhKc-0" vertex="1">
          <mxGeometry y="510" width="580" height="8" as="geometry" />
        </mxCell>
        <mxCell id="wsBFLtOQU4uTYkTnuhKc-3" value="DATA SISWA 4" style="swimlane;fontStyle=0;align=center;verticalAlign=top;childLayout=stackLayout;horizontal=1;startSize=26;horizontalStack=0;resizeParent=1;resizeLast=0;collapsible=1;marginBottom=0;rounded=0;shadow=0;strokeWidth=1;" parent="WIyWlLk6GJQsqaUBKTNV-1" vertex="1">
          <mxGeometry x="1910" y="360" width="340" height="558" as="geometry">
            <mxRectangle x="340" y="380" width="170" height="26" as="alternateBounds" />
          </mxGeometry>
        </mxCell>
        <mxCell id="wsBFLtOQU4uTYkTnuhKc-4" value="`id` int(11) UNSIGNED NOT NULL,&#xa;  `ppdb_id` int(11) DEFAULT NULL,&#xa;  `media_sosial_2` varchar(100) DEFAULT NULL,&#xa;  `program_sekolah` varchar(100) NOT NULL,&#xa;  `fasilitas_pelayanan` varchar(100) NOT NULL,&#xa;  `jarak` varchar(100) NOT NULL,&#xa;  `uang_sekolah_terjangkau` varchar(100) NOT NULL,&#xa;  `fasilitas_lengkap` varchar(100) NOT NULL,&#xa;  `kebersihan` varchar(100) NOT NULL,&#xa;  `pelayanan_informasi` varchar(100) NOT NULL,&#xa;  `tenaga_pendidik_kompeten` varchar(100) NOT NULL,&#xa;  `tidak_pilih_fasilitas_pelayanan` varchar(100) NOT NULL,&#xa;  `1km_jarak` varchar(100) NOT NULL,&#xa;  `1_sampai_5km` varchar(100) NOT NULL,&#xa;  `6_sampai_10km` varchar(100) NOT NULL,&#xa;  `11_sampai_20km` varchar(100) NOT NULL,&#xa;  `21_sampai_30km` varchar(100) NOT NULL,&#xa;  `tidak_pilih_jarak` varchar(100) NOT NULL,&#xa;  `uang_pangkal` varchar(100) NOT NULL,&#xa;  `spp` varchar(100) NOT NULL,&#xa;  `tanda_biaya_tambahan` varchar(100) NOT NULL,&#xa;  `tidak_terjangkau` varchar(100) NOT NULL,&#xa;  `sederhana_dan_mudah` varchar(100) DEFAULT NULL,&#xa;  `standar_sama` varchar(100) DEFAULT NULL,&#xa;  `berbelit_belit` varchar(100) DEFAULT NULL,&#xa;  `tidak_murah` varchar(100) DEFAULT NULL,&#xa;  `merepotkan` varchar(100) DEFAULT NULL,&#xa;  `pendapat_saya` varchar(100) DEFAULT NULL,&#xa;  `program_7_habits` varchar(100) DEFAULT NULL,&#xa;  `prestasi_sekolah` varchar(100) DEFAULT NULL,&#xa;  `ekstrakulikuler` varchar(100) DEFAULT NULL,&#xa;  `booster_1` varchar(100) DEFAULT NULL,&#xa;  `booster_2` varchar(100) DEFAULT NULL,&#xa;  `booster_3` varchar(100) DEFAULT NULL,&#xa;  `belum_vaksin` varchar(100) DEFAULT NULL,&#xa;  `created_at` timestamp NULL DEFAULT NULL" style="text;align=left;verticalAlign=top;spacingLeft=4;spacingRight=4;overflow=hidden;rotatable=0;points=[[0,0.5],[1,0.5]];portConstraint=eastwest;" parent="wsBFLtOQU4uTYkTnuhKc-3" vertex="1">
          <mxGeometry y="26" width="340" height="524" as="geometry" />
        </mxCell>
        <mxCell id="wsBFLtOQU4uTYkTnuhKc-5" value="" style="line;html=1;strokeWidth=1;align=left;verticalAlign=middle;spacingTop=-1;spacingLeft=3;spacingRight=3;rotatable=0;labelPosition=right;points=[];portConstraint=eastwest;" parent="wsBFLtOQU4uTYkTnuhKc-3" vertex="1">
          <mxGeometry y="550" width="340" height="8" as="geometry" />
        </mxCell>
        <mxCell id="wsBFLtOQU4uTYkTnuhKc-14" value="" style="edgeStyle=orthogonalEdgeStyle;rounded=0;orthogonalLoop=1;jettySize=auto;html=1;entryX=0.001;entryY=0.509;entryDx=0;entryDy=0;exitX=1;exitY=0.345;exitDx=0;exitDy=0;exitPerimeter=0;entryPerimeter=0;" parent="WIyWlLk6GJQsqaUBKTNV-1" source="zkfFHV4jXpPFQw0GAbJ--14" target="wsBFLtOQU4uTYkTnuhKc-1" edge="1">
          <mxGeometry relative="1" as="geometry">
            <Array as="points" />
            <mxPoint x="1180" y="631.6500000000002" as="sourcePoint" />
            <mxPoint x="1245.6199999999994" y="632.3420000000002" as="targetPoint" />
          </mxGeometry>
        </mxCell>
        <mxCell id="wsBFLtOQU4uTYkTnuhKc-17" value="" style="edgeStyle=orthogonalEdgeStyle;rounded=0;orthogonalLoop=1;jettySize=auto;html=1;entryX=0;entryY=0.5;entryDx=0;entryDy=0;exitX=1;exitY=0.222;exitDx=0;exitDy=0;exitPerimeter=0;" parent="WIyWlLk6GJQsqaUBKTNV-1" source="zkfFHV4jXpPFQw0GAbJ--7" target="zkfFHV4jXpPFQw0GAbJ--14" edge="1">
          <mxGeometry relative="1" as="geometry" />
        </mxCell>
        <mxCell id="r1qEbPDYCdab6uhuSibT-15" value="" style="edgeStyle=orthogonalEdgeStyle;rounded=0;orthogonalLoop=1;jettySize=auto;html=1;exitX=1.001;exitY=0.01;exitDx=0;exitDy=0;exitPerimeter=0;" edge="1" parent="WIyWlLk6GJQsqaUBKTNV-1" source="wsBFLtOQU4uTYkTnuhKc-19" target="r1qEbPDYCdab6uhuSibT-14">
          <mxGeometry relative="1" as="geometry" />
        </mxCell>
        <mxCell id="wsBFLtOQU4uTYkTnuhKc-18" value="PPDB" style="swimlane;fontStyle=0;align=center;verticalAlign=top;childLayout=stackLayout;horizontal=1;startSize=26;horizontalStack=0;resizeParent=1;resizeLast=0;collapsible=1;marginBottom=0;rounded=0;shadow=0;strokeWidth=1;" parent="WIyWlLk6GJQsqaUBKTNV-1" vertex="1">
          <mxGeometry x="-1223" y="275" width="420" height="855" as="geometry">
            <mxRectangle x="130" y="380" width="160" height="26" as="alternateBounds" />
          </mxGeometry>
        </mxCell>
        <mxCell id="wsBFLtOQU4uTYkTnuhKc-19" value="  `id` int(10) NOT NULL,&#xa;  `registration_schedule_id` int(11) DEFAULT NULL,&#xa;  `document_no` varchar(191) NOT NULL,&#xa;  `document_status` int(11) NOT NULL,&#xa;  `id_user` int(11) NOT NULL,&#xa;  `school_site` varchar(100) NOT NULL,&#xa;  `stage` varchar(10) NOT NULL,&#xa;  `classes` varchar(10) NOT NULL,&#xa;  `student_status` varchar(191) NOT NULL,&#xa;  `fullname` varchar(191) NOT NULL,&#xa;  `gender` varchar(191) NOT NULL,&#xa;  `place_of_birth` varchar(191) NOT NULL,&#xa;  `date_of_birth` varchar(191) NOT NULL,&#xa;  `religion` varchar(191) NOT NULL,&#xa;  `nationality` varchar(191) NOT NULL,&#xa;  `address` varchar(191) NOT NULL,&#xa;  `home_phone` varchar(191) DEFAULT NULL,&#xa;  `hand_phone` varchar(191) NOT NULL,&#xa;  `school_origin` varchar(191) DEFAULT NULL,&#xa;  `family_card` text DEFAULT NULL,&#xa;  `birth_certificate` text DEFAULT NULL,&#xa;  `last_report` text DEFAULT NULL,&#xa;  `academic_certificate` text DEFAULT NULL,&#xa;  `kia_book` text DEFAULT NULL,&#xa;  `file_additional` text DEFAULT NULL,&#xa;  `medco_employee` varchar(100) DEFAULT NULL,&#xa;  `medco_employee_file` text DEFAULT NULL,&#xa;  `ppdb_discount` varchar(100) DEFAULT NULL,&#xa;  `studied_before` int(11) NOT NULL DEFAULT 0,&#xa;  `file_additional_satu` text DEFAULT NULL,&#xa;  `file_additional_dua` text DEFAULT NULL,&#xa;  `file_additional_tiga` text DEFAULT NULL,&#xa;  `file_additional_empat` text DEFAULT NULL,&#xa;  `file_additional_lima` text DEFAULT NULL,&#xa;  `tingkat_satu` varchar(191) DEFAULT NULL,&#xa;  `tingkat_dua` varchar(191) DEFAULT NULL,&#xa;  `tingkat_tiga` varchar(191) DEFAULT NULL,&#xa;  `tingkat_empat` varchar(191) DEFAULT NULL,&#xa;  `tingkat_lima` varchar(191) DEFAULT NULL,&#xa;  `deskripsi_satu` varchar(191) DEFAULT NULL,&#xa;  `deskripsi_dua` varchar(191) DEFAULT NULL,&#xa;  `deskripsi_tiga` varchar(191) DEFAULT NULL,&#xa;  `deskripsi_empat` varchar(191) DEFAULT NULL,&#xa;  `deskripsi_lima` varchar(191) DEFAULT NULL,&#xa;  `fhoto_siswa` longtext DEFAULT NULL,&#xa;  `status_siswa` varchar(191) DEFAULT NULL,&#xa;  `gaji` varchar(191) DEFAULT NULL,&#xa;  `slip_gaji_parent` varchar(191) DEFAULT NULL,&#xa;  `nis` varchar(250) NOT NULL,&#xa;  `ppdb_id` int(50) DEFAULT NULL,&#xa;  `updated_by` varchar(25) DEFAULT NULL,&#xa;  `created_at` timestamp NULL DEFAULT NULL,&#xa;  `updated_at` timestamp NULL DEFAULT NULL,&#xa;  `rejected_at` timestamp NULL DEFAULT NULL,&#xa;  `rejected_by` int(6) DEFAULT NULL" style="text;align=left;verticalAlign=top;spacingLeft=4;spacingRight=4;overflow=hidden;rotatable=0;points=[[0,0.5],[1,0.5]];portConstraint=eastwest;" parent="wsBFLtOQU4uTYkTnuhKc-18" vertex="1">
          <mxGeometry y="26" width="420" height="784" as="geometry" />
        </mxCell>
        <mxCell id="wsBFLtOQU4uTYkTnuhKc-20" value="" style="line;html=1;strokeWidth=1;align=left;verticalAlign=middle;spacingTop=-1;spacingLeft=3;spacingRight=3;rotatable=0;labelPosition=right;points=[];portConstraint=eastwest;" parent="wsBFLtOQU4uTYkTnuhKc-18" vertex="1">
          <mxGeometry y="810" width="420" height="40" as="geometry" />
        </mxCell>
        <mxCell id="r1qEbPDYCdab6uhuSibT-18" value="" style="edgeStyle=orthogonalEdgeStyle;rounded=0;orthogonalLoop=1;jettySize=auto;html=1;" edge="1" parent="WIyWlLk6GJQsqaUBKTNV-1" source="wsBFLtOQU4uTYkTnuhKc-21" target="r1qEbPDYCdab6uhuSibT-17">
          <mxGeometry relative="1" as="geometry">
            <Array as="points">
              <mxPoint x="-61" y="350" />
              <mxPoint x="-61" y="335" />
            </Array>
          </mxGeometry>
        </mxCell>
        <mxCell id="wsBFLtOQU4uTYkTnuhKc-21" value="PPDB Interview" style="swimlane;fontStyle=0;align=center;verticalAlign=top;childLayout=stackLayout;horizontal=1;startSize=26;horizontalStack=0;resizeParent=1;resizeLast=0;collapsible=1;marginBottom=0;rounded=0;shadow=0;strokeWidth=1;" parent="WIyWlLk6GJQsqaUBKTNV-1" vertex="1">
          <mxGeometry x="-773" y="337" width="360" height="590" as="geometry">
            <mxRectangle x="-773" y="337" width="160" height="26" as="alternateBounds" />
          </mxGeometry>
        </mxCell>
        <mxCell id="wsBFLtOQU4uTYkTnuhKc-22" value="`id` int(10) NOT NULL,&#xa;  `ppdb_id` int(10) NOT NULL,&#xa;  `school_recomendation_result` int(11) NOT NULL DEFAULT 0,&#xa;  `school_recomendation_file` text DEFAULT NULL,&#xa;  `school_recomendation_note` text DEFAULT NULL,&#xa;  `is_submited` int(11) NOT NULL DEFAULT 0,&#xa;  `interview_result` int(3) NOT NULL,&#xa;  `interview_result_file` text NOT NULL,&#xa;  `interview_result_note` text DEFAULT NULL,&#xa;  `kesiapan_value` int(11) NOT NULL,&#xa;  `kesiapan_file` text DEFAULT NULL,&#xa;  `kesiapan_result` int(11) NOT NULL,&#xa;  `kesiapan_result_note` text DEFAULT NULL,&#xa;  `psikotest_value` int(10) NOT NULL,&#xa;  `psikotest_file` text DEFAULT NULL,&#xa;  `psikotest_result` int(10) NOT NULL,&#xa;  `psikotest_result_note` text DEFAULT NULL,&#xa;  `academic_value` int(10) NOT NULL,&#xa;  `academic_file` text DEFAULT NULL,&#xa;  `academic_result` int(10) NOT NULL,&#xa;  `academic_result_note` text DEFAULT NULL,&#xa;  `interview_parent_summary` text DEFAULT NULL,&#xa;  `interview_parent_file` text DEFAULT NULL,&#xa;  `interview_parent_result` int(10) NOT NULL,&#xa;  `interview_parent_result_note` text DEFAULT NULL,&#xa;  `interview_student_summary` text DEFAULT NULL,&#xa;  `interview_student_file` text DEFAULT NULL,&#xa;  `interview_student_result` int(10) NOT NULL,&#xa;  `interview_student_result_note` text DEFAULT NULL,&#xa;  `observasi_value` int(10) NOT NULL,&#xa;  `observasi_summary` text DEFAULT NULL,&#xa;  `observasi_file` text DEFAULT NULL,&#xa;  `observasi_result` int(10) NOT NULL,&#xa;  `observasi_result_note` text DEFAULT NULL,&#xa;  `created_at` timestamp NULL DEFAULT NULL,&#xa;  `updated_at` timestamp NULL DEFAULT NULL,&#xa;  `deleted_at` timestamp NULL DEFAULT NULL" style="text;align=left;verticalAlign=top;spacingLeft=4;spacingRight=4;overflow=hidden;rotatable=0;points=[[0,0.5],[1,0.5]];portConstraint=eastwest;" parent="wsBFLtOQU4uTYkTnuhKc-21" vertex="1">
          <mxGeometry y="26" width="360" height="534" as="geometry" />
        </mxCell>
        <mxCell id="wsBFLtOQU4uTYkTnuhKc-23" value="" style="line;html=1;strokeWidth=1;align=left;verticalAlign=middle;spacingTop=-1;spacingLeft=3;spacingRight=3;rotatable=0;labelPosition=right;points=[];portConstraint=eastwest;" parent="wsBFLtOQU4uTYkTnuhKc-21" vertex="1">
          <mxGeometry y="560" width="360" height="20" as="geometry" />
        </mxCell>
        <mxCell id="r1qEbPDYCdab6uhuSibT-20" value="" style="edgeStyle=orthogonalEdgeStyle;rounded=0;orthogonalLoop=1;jettySize=auto;html=1;exitX=1.009;exitY=0.05;exitDx=0;exitDy=0;exitPerimeter=0;" edge="1" parent="WIyWlLk6GJQsqaUBKTNV-1" source="wsBFLtOQU4uTYkTnuhKc-24" target="r1qEbPDYCdab6uhuSibT-19">
          <mxGeometry relative="1" as="geometry" />
        </mxCell>
        <mxCell id="wsBFLtOQU4uTYkTnuhKc-24" value="PAYMENT" style="swimlane;fontStyle=0;align=center;verticalAlign=top;childLayout=stackLayout;horizontal=1;startSize=26;horizontalStack=0;resizeParent=1;resizeLast=0;collapsible=1;marginBottom=0;rounded=0;shadow=0;strokeWidth=1;" parent="WIyWlLk6GJQsqaUBKTNV-1" vertex="1">
          <mxGeometry x="-370" y="380" width="310" height="260" as="geometry">
            <mxRectangle x="130" y="380" width="160" height="26" as="alternateBounds" />
          </mxGeometry>
        </mxCell>
        <mxCell id="wsBFLtOQU4uTYkTnuhKc-25" value="  `id` int(10) UNSIGNED NOT NULL,&#xa;  `ppdb_id` int(10) UNSIGNED NOT NULL,&#xa;  `payment_type` varchar(100) NOT NULL,&#xa;  `payment_code` varchar(100) NOT NULL,&#xa;  `confirmation_status` int(11) NOT NULL DEFAULT 0,&#xa;  `date_send` date NOT NULL,&#xa;  `bank_owner_name` varchar(150) NOT NULL,&#xa;  `bank_code` varchar(100) NOT NULL,&#xa;  `account_number` varchar(100) NOT NULL,&#xa;  `cost` int(11) NOT NULL,&#xa;  `image_confirmation` varchar(300) NOT NULL,&#xa;  `created_at` timestamp NULL DEFAULT NULL,&#xa;  `updated_at` timestamp NULL DEFAULT NULL,&#xa;  `updated_by` int(11) DEFAULT NULL" style="text;align=left;verticalAlign=top;spacingLeft=4;spacingRight=4;overflow=hidden;rotatable=0;points=[[0,0.5],[1,0.5]];portConstraint=eastwest;" parent="wsBFLtOQU4uTYkTnuhKc-24" vertex="1">
          <mxGeometry y="26" width="310" height="214" as="geometry" />
        </mxCell>
        <mxCell id="wsBFLtOQU4uTYkTnuhKc-26" value="" style="line;html=1;strokeWidth=1;align=left;verticalAlign=middle;spacingTop=-1;spacingLeft=3;spacingRight=3;rotatable=0;labelPosition=right;points=[];portConstraint=eastwest;" parent="wsBFLtOQU4uTYkTnuhKc-24" vertex="1">
          <mxGeometry y="240" width="310" height="8" as="geometry" />
        </mxCell>
        <mxCell id="r1qEbPDYCdab6uhuSibT-131" value="" style="edgeStyle=orthogonalEdgeStyle;rounded=0;orthogonalLoop=1;jettySize=auto;html=1;" edge="1" parent="WIyWlLk6GJQsqaUBKTNV-1" source="r1qEbPDYCdab6uhuSibT-0" target="r1qEbPDYCdab6uhuSibT-130">
          <mxGeometry relative="1" as="geometry" />
        </mxCell>
        <mxCell id="r1qEbPDYCdab6uhuSibT-0" value="REREGISTER" style="swimlane;fontStyle=0;align=center;verticalAlign=top;childLayout=stackLayout;horizontal=1;startSize=26;horizontalStack=0;resizeParent=1;resizeLast=0;collapsible=1;marginBottom=0;rounded=0;shadow=0;strokeWidth=1;" vertex="1" parent="WIyWlLk6GJQsqaUBKTNV-1">
          <mxGeometry x="-20" y="445" width="280" height="155" as="geometry">
            <mxRectangle x="130" y="380" width="160" height="26" as="alternateBounds" />
          </mxGeometry>
        </mxCell>
        <mxCell id="r1qEbPDYCdab6uhuSibT-1" value=" `id` int(10) UNSIGNED NOT NULL,&#xa;  `file_additionalsatu` text DEFAULT NULL,&#xa;  `file_additionaldua` text DEFAULT NULL,&#xa;  `ppdb_id` int(11) DEFAULT NULL,&#xa;  `medco_employee_file` text DEFAULT NULL,&#xa;  `created_at` timestamp NULL DEFAULT &#39;0000-00-00 00:00:00&#39; ON UPDATE current_timestamp(),&#xa;  `updated_at` timestamp NULL DEFAULT &#39;0000-00-00 00:00:00&#39;" style="text;align=left;verticalAlign=top;spacingLeft=4;spacingRight=4;overflow=hidden;rotatable=0;points=[[0,0.5],[1,0.5]];portConstraint=eastwest;" vertex="1" parent="r1qEbPDYCdab6uhuSibT-0">
          <mxGeometry y="26" width="280" height="114" as="geometry" />
        </mxCell>
        <mxCell id="r1qEbPDYCdab6uhuSibT-2" value="" style="line;html=1;strokeWidth=1;align=left;verticalAlign=middle;spacingTop=-1;spacingLeft=3;spacingRight=3;rotatable=0;labelPosition=right;points=[];portConstraint=eastwest;" vertex="1" parent="r1qEbPDYCdab6uhuSibT-0">
          <mxGeometry y="140" width="280" height="8" as="geometry" />
        </mxCell>
        <mxCell id="r1qEbPDYCdab6uhuSibT-16" value="" style="endArrow=block;endSize=10;endFill=0;shadow=0;strokeWidth=1;rounded=0;edgeStyle=elbowEdgeStyle;elbow=vertical;" edge="1" parent="WIyWlLk6GJQsqaUBKTNV-1" source="zkfFHV4jXpPFQw0GAbJ--6" target="r1qEbPDYCdab6uhuSibT-14">
          <mxGeometry width="160" relative="1" as="geometry">
            <mxPoint x="470" y="360" as="sourcePoint" />
            <mxPoint x="300" y="258" as="targetPoint" />
          </mxGeometry>
        </mxCell>
        <mxCell id="r1qEbPDYCdab6uhuSibT-14" value="" style="shape=waypoint;sketch=0;size=6;pointerEvents=1;points=[];fillColor=default;resizable=0;rotatable=0;perimeter=centerPerimeter;snapToPoint=1;verticalAlign=top;fontStyle=0;startSize=26;rounded=0;shadow=0;strokeWidth=1;" vertex="1" parent="WIyWlLk6GJQsqaUBKTNV-1">
          <mxGeometry x="290" y="300" width="20" height="20" as="geometry" />
        </mxCell>
        <mxCell id="r1qEbPDYCdab6uhuSibT-17" value="" style="shape=waypoint;sketch=0;size=6;pointerEvents=1;points=[];fillColor=default;resizable=0;rotatable=0;perimeter=centerPerimeter;snapToPoint=1;verticalAlign=top;fontStyle=0;startSize=26;rounded=0;shadow=0;strokeWidth=1;" vertex="1" parent="WIyWlLk6GJQsqaUBKTNV-1">
          <mxGeometry x="290" y="325" width="20" height="20" as="geometry" />
        </mxCell>
        <mxCell id="r1qEbPDYCdab6uhuSibT-19" value="" style="shape=waypoint;sketch=0;size=6;pointerEvents=1;points=[];fillColor=default;resizable=0;rotatable=0;perimeter=centerPerimeter;snapToPoint=1;verticalAlign=top;fontStyle=0;startSize=26;rounded=0;shadow=0;strokeWidth=1;" vertex="1" parent="WIyWlLk6GJQsqaUBKTNV-1">
          <mxGeometry x="290" y="330" width="20" height="20" as="geometry" />
        </mxCell>
        <mxCell id="r1qEbPDYCdab6uhuSibT-130" value="" style="shape=waypoint;sketch=0;size=6;pointerEvents=1;points=[];fillColor=default;resizable=0;rotatable=0;perimeter=centerPerimeter;snapToPoint=1;verticalAlign=top;fontStyle=0;startSize=26;rounded=0;shadow=0;strokeWidth=1;" vertex="1" parent="WIyWlLk6GJQsqaUBKTNV-1">
          <mxGeometry x="290" y="385" width="20" height="20" as="geometry" />
        </mxCell>
        <mxCell id="r1qEbPDYCdab6uhuSibT-210" value="USER" style="swimlane;fontStyle=0;align=center;verticalAlign=top;childLayout=stackLayout;horizontal=1;startSize=26;horizontalStack=0;resizeParent=1;resizeLast=0;collapsible=1;marginBottom=0;rounded=0;shadow=0;strokeWidth=1;" vertex="1" parent="WIyWlLk6GJQsqaUBKTNV-1">
          <mxGeometry x="3723" y="-190" width="600" height="450" as="geometry">
            <mxRectangle x="220" y="-270" width="160" height="26" as="alternateBounds" />
          </mxGeometry>
        </mxCell>
        <mxCell id="r1qEbPDYCdab6uhuSibT-211" value=" `id` bigint(20) UNSIGNED NOT NULL,&#xa;  `user_id` int(11) NOT NULL,&#xa;  `uuid` char(36) NOT NULL,&#xa;  `first_name` varchar(191) DEFAULT NULL,&#xa;  `last_name` varchar(191) DEFAULT NULL,&#xa;  `email` varchar(191) NOT NULL,&#xa;  `phone` varchar(30) DEFAULT NULL,&#xa;  `avatar_type` varchar(191) NOT NULL DEFAULT &#39;gravatar&#39;,&#xa;  `avatar_location` varchar(191) DEFAULT NULL,&#xa;  `password` varchar(191) DEFAULT NULL,&#xa;  `password_changed_at` timestamp NULL DEFAULT NULL,&#xa;  `active` tinyint(3) UNSIGNED NOT NULL DEFAULT 1,&#xa;  `confirmation_code` varchar(191) DEFAULT NULL,&#xa;  `confirmed` tinyint(1) NOT NULL DEFAULT 0,&#xa;  `timezone` varchar(191) DEFAULT NULL,&#xa;  `last_login_at` timestamp NULL DEFAULT NULL,&#xa;  `last_login_ip` varchar(191) DEFAULT NULL,&#xa;  `to_be_logged_out` tinyint(1) NOT NULL DEFAULT 0,&#xa;  `status` tinyint(1) NOT NULL DEFAULT 1,&#xa;  `created_by` int(10) UNSIGNED DEFAULT NULL,&#xa;  `updated_by` int(10) UNSIGNED DEFAULT NULL,&#xa;  `is_term_accept` tinyint(1) NOT NULL DEFAULT 0 COMMENT &#39; 0 = not accepted,1 = accepted&#39;,&#xa;  `remember_token` varchar(100) DEFAULT NULL,&#xa;  `created_at` timestamp NULL DEFAULT NULL,&#xa;  `updated_at` timestamp NULL DEFAULT NULL,&#xa;  `deleted_at` timestamp NULL DEFAULT NULL" style="text;align=left;verticalAlign=top;spacingLeft=4;spacingRight=4;overflow=hidden;rotatable=0;points=[[0,0.5],[1,0.5]];portConstraint=eastwest;" vertex="1" parent="r1qEbPDYCdab6uhuSibT-210">
          <mxGeometry y="26" width="600" height="384" as="geometry" />
        </mxCell>
        <mxCell id="r1qEbPDYCdab6uhuSibT-212" value="" style="line;html=1;strokeWidth=1;align=left;verticalAlign=middle;spacingTop=-1;spacingLeft=3;spacingRight=3;rotatable=0;labelPosition=right;points=[];portConstraint=eastwest;" vertex="1" parent="r1qEbPDYCdab6uhuSibT-210">
          <mxGeometry y="410" width="600" height="8" as="geometry" />
        </mxCell>
        <mxCell id="r1qEbPDYCdab6uhuSibT-213" value="DATA SISWA SYSTEM" style="swimlane;fontStyle=0;align=center;verticalAlign=top;childLayout=stackLayout;horizontal=1;startSize=26;horizontalStack=0;resizeParent=1;resizeLast=0;collapsible=1;marginBottom=0;rounded=0;shadow=0;strokeWidth=1;" vertex="1" parent="WIyWlLk6GJQsqaUBKTNV-1">
          <mxGeometry x="4063" y="390" width="410" height="1670" as="geometry">
            <mxRectangle x="130" y="380" width="160" height="26" as="alternateBounds" />
          </mxGeometry>
        </mxCell>
        <mxCell id="r1qEbPDYCdab6uhuSibT-214" value="`id` int(20) UNSIGNED NOT NULL,&#xa;  `nama_lengkap` varchar(250) DEFAULT NULL,&#xa;  `jenis_kelamin` varchar(10) DEFAULT NULL,&#xa;  `nisn` varchar(100) DEFAULT NULL,&#xa;  `tempat_lahir` varchar(250) DEFAULT NULL,&#xa;  `tanggal_lahir` date DEFAULT NULL,&#xa;  `ppdb_id` varchar(250) DEFAULT NULL,&#xa;  `agama` varchar(250) DEFAULT NULL,&#xa;  `alamat_jalan` varchar(250) DEFAULT NULL,&#xa;  `rt` text DEFAULT NULL,&#xa;  `rw` text DEFAULT NULL,&#xa;  `nama_dusun` text DEFAULT NULL,&#xa;  `nama_kelurahan` text DEFAULT NULL,&#xa;  `kecamatan` text DEFAULT NULL,&#xa;  `kode_pos` varchar(250) DEFAULT NULL,&#xa;  `tempat_tinggal` varchar(250) DEFAULT NULL,&#xa;  `moda_transportasi` varchar(250) DEFAULT NULL,&#xa;  `telepon_rumah` varchar(250) DEFAULT NULL,&#xa;  `nomor_hp` varchar(250) DEFAULT NULL,&#xa;  `email` varchar(250) DEFAULT NULL,&#xa;  `no_seri_skhun` text DEFAULT NULL,&#xa;  `nama_ayah` varchar(250) DEFAULT NULL,&#xa;  `tahun_lahir_ayah` varchar(50) DEFAULT NULL,&#xa;  `pendidikan_ayah` varchar(250) DEFAULT NULL,&#xa;  `pekerjaan_ayah` varchar(250) DEFAULT NULL,&#xa;  `penghasilan_bulanan_ayah` varchar(250) DEFAULT NULL,&#xa;  `nik_ayah` varchar(250) DEFAULT NULL,&#xa;  `nama_Ibu` varchar(250) DEFAULT NULL,&#xa;  `tahun_lahir_ibu` varchar(50) DEFAULT NULL,&#xa;  `pendidikan_ibu` varchar(250) DEFAULT NULL,&#xa;  `pekerjaan_ibu` varchar(250) DEFAULT NULL,&#xa;  `penghasilan_bulanan_ibu` varchar(250) DEFAULT NULL,&#xa;  `nik_Ibu` varchar(250) DEFAULT NULL,&#xa;  `nama_wali` varchar(250) DEFAULT NULL,&#xa;  `tahun_lahir_wali` varchar(50) DEFAULT NULL,&#xa;  `pendidikan_wali` varchar(250) DEFAULT NULL,&#xa;  `pekerjaan_wali` varchar(250) DEFAULT NULL,&#xa;  `penghasilan_bulanan_wali` varchar(250) DEFAULT NULL,&#xa;  `nik_wali` varchar(250) DEFAULT NULL,&#xa;  `no_seri_ijazah` text DEFAULT NULL,&#xa;  `kip` varchar(250) DEFAULT NULL,&#xa;  `nomor_kip` varchar(250) DEFAULT NULL,&#xa;  `nama_kip` varchar(250) DEFAULT NULL,&#xa;  `nomor_kks` varchar(250) DEFAULT NULL,&#xa;  `akta_kelahiran` varchar(250) DEFAULT NULL,&#xa;  `bank` varchar(100) DEFAULT NULL,&#xa;  `no_rekening` varchar(250) DEFAULT NULL,&#xa;  `rekening_atas_nama` varchar(250) DEFAULT NULL,&#xa;  `alasan_layak_pip` varchar(250) DEFAULT NULL,&#xa;  `berkebutuhan_khusus` varchar(250) DEFAULT NULL,&#xa;  `asal_sekolah` text DEFAULT NULL,&#xa;  `anak_keberapa` varchar(50) DEFAULT NULL,&#xa;  `berat_badan` varchar(150) DEFAULT NULL,&#xa;  `tinggi_badan` varchar(250) DEFAULT NULL,&#xa;  `saudara_kandung` varchar(250) DEFAULT NULL,&#xa;  `jarak_tempat` varchar(250) DEFAULT NULL,&#xa;  `penerima_kps_pkh` varchar(250) DEFAULT NULL,&#xa;  `tahun_ajaran` varchar(250) DEFAULT NULL,&#xa;  `tanggal_pendaftaran` date DEFAULT NULL,&#xa;  `status_siswa` varchar(10) DEFAULT NULL,&#xa;  `no_formulir` varchar(250) DEFAULT NULL,&#xa;  `kitas` varchar(250) DEFAULT NULL,&#xa;  `kewarganegaraan` varchar(250) DEFAULT NULL,&#xa;  `nama_negara` varchar(250) DEFAULT NULL,&#xa;  `no_kph_pkh` varchar(250) DEFAULT NULL,&#xa;  `usulan_dari_sekolah` varchar(250) DEFAULT NULL,&#xa;  `kartu_KIP` varchar(250) DEFAULT NULL,&#xa;  `berkebutuhan_khusus_ayah` varchar(250) DEFAULT NULL,&#xa;  `berkebutuhan_khusus_ibu` varchar(250) DEFAULT NULL,&#xa;  `jenis_ekstrakulikuler` varchar(250) DEFAULT NULL,&#xa;  `waktu_tempuh` varchar(250) DEFAULT NULL,&#xa;  `berkebutuhan_khusus_2` varchar(250) DEFAULT NULL,&#xa;  `nama_kelurahan_2` varchar(250) DEFAULT NULL,&#xa;  `jurusan` text DEFAULT NULL,&#xa;  `jenis_pendaftaran` text DEFAULT NULL,&#xa;  `nis` text DEFAULT NULL,&#xa;  `tanggal_masuk_sekolah` text DEFAULT NULL,&#xa;  `nomor_peserta_ujian` text DEFAULT NULL,&#xa;  `keluar_karena` text DEFAULT NULL,&#xa;  `tanggal_keluar` text DEFAULT NULL,&#xa;  `alasan` text DEFAULT NULL,&#xa;  `persetujuan` text DEFAULT NULL,&#xa;  `jenis_1` text DEFAULT NULL,&#xa;  `tingkat_1` text DEFAULT NULL,&#xa;  `nama_prestasi_1` text DEFAULT NULL,&#xa;  `tahun_1` text DEFAULT NULL,&#xa;  `penyelenggara_1` text DEFAULT NULL,&#xa;  `jenis_2` text DEFAULT NULL,&#xa;  `tingkat_2` text DEFAULT NULL,&#xa;  `nama_prestasi_2` text DEFAULT NULL,&#xa;  `tahun_2` text DEFAULT NULL,&#xa;  `penyelenggara_2` text DEFAULT NULL,&#xa;  `jenis_3` text DEFAULT NULL,&#xa;  `tingkat_3` text DEFAULT NULL,&#xa;  `nama_prestasi_3` text DEFAULT NULL,&#xa;  `tahun_3` text DEFAULT NULL,&#xa;  `penyelenggara_3` text DEFAULT NULL,&#xa;  `jenis_1_0` text DEFAULT NULL,&#xa;  `keterangan_1` text DEFAULT NULL,&#xa;  `tahun_mulai_1` text DEFAULT NULL,&#xa;  `tahun_selesai_1` text DEFAULT NULL,&#xa;  `jenis_2_0` text DEFAULT NULL,&#xa;  `keterangan_2` text DEFAULT NULL,&#xa;  `tahun_mulai_2` text DEFAULT NULL,&#xa;  `tahun_selesai_2` text DEFAULT NULL,&#xa;  `jenis_3_0` varchar(250) DEFAULT NULL,&#xa;  `keterangan_3` varchar(250) DEFAULT NULL,&#xa;  `tahun_mulai_3` varchar(250) DEFAULT NULL,&#xa;  `tahun_selesai_3` varchar(250) DEFAULT NULL,&#xa;  `sekolah` varchar(50) DEFAULT NULL,&#xa;  `unit` varchar(50) NOT NULL,&#xa;  `input_by` varchar(250) DEFAULT NULL,&#xa;  `created_at` date NOT NULL DEFAULT current_timestamp(),&#xa;  `updated_at` timestamp NULL DEFAULT NULL" style="text;align=left;verticalAlign=top;spacingLeft=4;spacingRight=4;overflow=hidden;rotatable=0;points=[[0,0.5],[1,0.5]];portConstraint=eastwest;" vertex="1" parent="r1qEbPDYCdab6uhuSibT-213">
          <mxGeometry y="26" width="410" height="1610" as="geometry" />
        </mxCell>
        <mxCell id="r1qEbPDYCdab6uhuSibT-215" value="" style="line;html=1;strokeWidth=1;align=left;verticalAlign=middle;spacingTop=-1;spacingLeft=3;spacingRight=3;rotatable=0;labelPosition=right;points=[];portConstraint=eastwest;" vertex="1" parent="r1qEbPDYCdab6uhuSibT-213">
          <mxGeometry y="1636" width="410" height="8" as="geometry" />
        </mxCell>
        <mxCell id="r1qEbPDYCdab6uhuSibT-216" value="" style="endArrow=block;endSize=10;endFill=0;shadow=0;strokeWidth=1;rounded=0;edgeStyle=elbowEdgeStyle;elbow=vertical;" edge="1" parent="WIyWlLk6GJQsqaUBKTNV-1" source="r1qEbPDYCdab6uhuSibT-246" target="r1qEbPDYCdab6uhuSibT-210">
          <mxGeometry width="160" relative="1" as="geometry">
            <mxPoint x="3923" y="233" as="sourcePoint" />
            <mxPoint x="3923" y="233" as="targetPoint" />
          </mxGeometry>
        </mxCell>
        <mxCell id="r1qEbPDYCdab6uhuSibT-217" value="DATA SISWA SYSTEM 2" style="swimlane;fontStyle=0;align=center;verticalAlign=top;childLayout=stackLayout;horizontal=1;startSize=26;horizontalStack=0;resizeParent=1;resizeLast=0;collapsible=1;marginBottom=0;rounded=0;shadow=0;strokeWidth=1;" vertex="1" parent="WIyWlLk6GJQsqaUBKTNV-1">
          <mxGeometry x="4533" y="390" width="370" height="755" as="geometry">
            <mxRectangle x="340" y="380" width="170" height="26" as="alternateBounds" />
          </mxGeometry>
        </mxCell>
        <mxCell id="r1qEbPDYCdab6uhuSibT-218" value=" `id` int(11) UNSIGNED NOT NULL,&#xa;  `ppdb_id` varchar(25) DEFAULT NULL,&#xa;  `email` varchar(50) DEFAULT NULL,&#xa;  `nama_orang_tua` varchar(100) DEFAULT NULL,&#xa;  `alamat_orang_tua` varchar(100) DEFAULT NULL,&#xa;  `uang_pangkal_up_2` varchar(100) DEFAULT NULL,&#xa;  `spp_bulan_juli_2023` varchar(100) DEFAULT NULL,&#xa;  `spp_setiap_bulan` varchar(100) DEFAULT NULL,&#xa;  `sudah_melaksanakan_tes` varchar(100) DEFAULT NULL,&#xa;  `diterima_di_sekolah_negeri` varchar(100) DEFAULT NULL,&#xa;  `sudah_bersekolah_di_avicenna` varchar(100) DEFAULT NULL,&#xa;  `sudah_bersekolah_di_avicenna_2` varchar(100) DEFAULT NULL,&#xa;  `tata_tertib_sekolah` varchar(100) DEFAULT NULL,&#xa;  `aktivitas_foto_video` varchar(100) DEFAULT NULL,&#xa;  `didik_diijinkan` varchar(100) DEFAULT NULL,&#xa;  `baca_dan_pahami` varchar(100) DEFAULT NULL,&#xa;  `nama_calon_murid` varchar(100) DEFAULT NULL,&#xa;  `kelas` varchar(100) DEFAULT NULL,&#xa;  `persetujuan_tata_tertib` varchar(100) DEFAULT NULL,&#xa;  `jasmani` varchar(100) DEFAULT NULL,&#xa;  `laki_laki` varchar(100) DEFAULT NULL,&#xa;  `perempuan` varchar(100) DEFAULT NULL,&#xa;  `tempat_lahir` varchar(100) DEFAULT NULL,&#xa;  `tanggal_lahir` varchar(100) DEFAULT NULL,&#xa;  `berat_badan` varchar(100) DEFAULT NULL,&#xa;  `tinggi_badan` varchar(100) DEFAULT NULL,&#xa;  `golongan_darah` varchar(100) DEFAULT NULL,&#xa;  `catatan_imunisasi` varchar(100) DEFAULT NULL,&#xa;  `imunisasi` varchar(100) DEFAULT NULL,&#xa;  `imunisasi_lengkap` varchar(100) DEFAULT NULL,&#xa;  `gangguan_dan_kelainan` varchar(100) DEFAULT NULL,&#xa;  `tidak_ada_gangguan` varchar(100) DEFAULT NULL,&#xa;  `berbahaya` varchar(100) DEFAULT NULL,&#xa;  `tidak_berbahaya` varchar(100) DEFAULT NULL,&#xa;  `kode_registrasi` varchar(100) DEFAULT NULL,&#xa;  `unit` varchar(250) DEFAULT NULL,&#xa;  `sekolah` varchar(250) DEFAULT NULL,&#xa;  `kelas_utama` varchar(250) DEFAULT NULL,&#xa;  `sub_kelas` varchar(250) DEFAULT NULL,&#xa;  `nama_kepala_sekolah` varchar(250) DEFAULT NULL,&#xa;  `nama_wali_kelas` varchar(250) DEFAULT NULL,&#xa;  `nama_wali_kelas_2` varchar(250) DEFAULT NULL,&#xa;  `nisn` varchar(250) DEFAULT NULL,&#xa;  `nik_siswa` varchar(250) DEFAULT NULL,&#xa;  `status_siswa` varchar(250) DEFAULT NULL,&#xa;  `keterangan` varchar(250) DEFAULT NULL,&#xa;  `show_table` int(11) DEFAULT NULL,&#xa;  `updated_at` timestamp NULL DEFAULT NULL,&#xa;  `updated_by` varchar(50) DEFAULT NULL,&#xa;  `created_at` timestamp NULL DEFAULT NULL" style="text;align=left;verticalAlign=top;spacingLeft=4;spacingRight=4;overflow=hidden;rotatable=0;points=[[0,0.5],[1,0.5]];portConstraint=eastwest;" vertex="1" parent="r1qEbPDYCdab6uhuSibT-217">
          <mxGeometry y="26" width="370" height="714" as="geometry" />
        </mxCell>
        <mxCell id="r1qEbPDYCdab6uhuSibT-219" value="" style="line;html=1;strokeWidth=1;align=left;verticalAlign=middle;spacingTop=-1;spacingLeft=3;spacingRight=3;rotatable=0;labelPosition=right;points=[];portConstraint=eastwest;" vertex="1" parent="r1qEbPDYCdab6uhuSibT-217">
          <mxGeometry y="740" width="370" height="8" as="geometry" />
        </mxCell>
        <mxCell id="r1qEbPDYCdab6uhuSibT-220" value="" style="edgeStyle=orthogonalEdgeStyle;rounded=0;orthogonalLoop=1;jettySize=auto;html=1;entryX=-0.004;entryY=0.371;entryDx=0;entryDy=0;entryPerimeter=0;exitX=1.003;exitY=0.403;exitDx=0;exitDy=0;exitPerimeter=0;" edge="1" parent="WIyWlLk6GJQsqaUBKTNV-1" source="r1qEbPDYCdab6uhuSibT-222" target="r1qEbPDYCdab6uhuSibT-225">
          <mxGeometry relative="1" as="geometry" />
        </mxCell>
        <mxCell id="r1qEbPDYCdab6uhuSibT-221" value="DATA SISWA SYSTEM 3" style="swimlane;fontStyle=0;align=center;verticalAlign=top;childLayout=stackLayout;horizontal=1;startSize=26;horizontalStack=0;resizeParent=1;resizeLast=0;collapsible=1;marginBottom=0;rounded=0;shadow=0;strokeWidth=1;" vertex="1" parent="WIyWlLk6GJQsqaUBKTNV-1">
          <mxGeometry x="4973" y="390" width="580" height="518" as="geometry">
            <mxRectangle x="340" y="380" width="170" height="26" as="alternateBounds" />
          </mxGeometry>
        </mxCell>
        <mxCell id="r1qEbPDYCdab6uhuSibT-222" value=" `id` int(20) UNSIGNED NOT NULL,&#xa;  `ppdb_id` varchar(100) DEFAULT NULL,&#xa;  `yang_lain` varchar(100) DEFAULT NULL,&#xa;  `normal_tidak_gangguan` varchar(100) DEFAULT NULL,&#xa;  `kompilasi_ketika_melahirkan` varchar(100) DEFAULT NULL,&#xa;  `tidak_ada_cacat` varchar(100) DEFAULT NULL,&#xa;  `cacat_bawaan` varchar(100) DEFAULT NULL,&#xa;  `normal_1` varchar(100) DEFAULT NULL,&#xa;  `terlambat_1` varchar(100) DEFAULT NULL,&#xa;  `normal_2` varchar(100) DEFAULT NULL,&#xa;  `terlambat_2` varchar(100) DEFAULT NULL,&#xa;  `normal_3` varchar(100) DEFAULT NULL,&#xa;  `terlambat_3` varchar(100) DEFAULT NULL,&#xa;  `normal_4` varchar(100) DEFAULT NULL,&#xa;  `terlambat_4` varchar(100) DEFAULT NULL,&#xa;  `normal_5` varchar(100) DEFAULT NULL,&#xa;  `terlambat_5` varchar(100) DEFAULT NULL,&#xa;  `ada` varchar(100) DEFAULT NULL,&#xa;  `tidak_ada` varchar(100) DEFAULT NULL,&#xa;  `ya_pernah` varchar(100) DEFAULT NULL,&#xa;  `tidak_pernah` varchar(100) DEFAULT NULL,&#xa;  `ya_riwayat_kejang` varchar(100) DEFAULT NULL,&#xa;  `tidak_riwayat_kejang` varchar(100) DEFAULT NULL,&#xa;  `riwayat_penyakit_diderita` varchar(100) DEFAULT NULL,&#xa;  `rawat_rumah_sakit` varchar(100) DEFAULT NULL,&#xa;  `catatan_lain` varchar(100) DEFAULT NULL,&#xa;  `sekolah_asal` varchar(100) DEFAULT NULL,&#xa;  `brand` varchar(100) DEFAULT NULL,&#xa;  `kegiatan_sekolah` varchar(100) DEFAULT NULL,&#xa;  `media_cetak` varchar(100) DEFAULT NULL,&#xa;  `media_elektronik` varchar(100) DEFAULT NULL,&#xa;  `media_sosial` varchar(100) DEFAULT NULL,&#xa;  `created_at` timestamp NOT NULL DEFAULT current_timestamp() ON UPDATE current_timestamp()" style="text;align=left;verticalAlign=top;spacingLeft=4;spacingRight=4;overflow=hidden;rotatable=0;points=[[0,0.5],[1,0.5]];portConstraint=eastwest;" vertex="1" parent="r1qEbPDYCdab6uhuSibT-221">
          <mxGeometry y="26" width="580" height="484" as="geometry" />
        </mxCell>
        <mxCell id="r1qEbPDYCdab6uhuSibT-223" value="" style="line;html=1;strokeWidth=1;align=left;verticalAlign=middle;spacingTop=-1;spacingLeft=3;spacingRight=3;rotatable=0;labelPosition=right;points=[];portConstraint=eastwest;" vertex="1" parent="r1qEbPDYCdab6uhuSibT-221">
          <mxGeometry y="510" width="580" height="8" as="geometry" />
        </mxCell>
        <mxCell id="r1qEbPDYCdab6uhuSibT-224" value="DATA SISWA SYSTEM 4" style="swimlane;fontStyle=0;align=center;verticalAlign=top;childLayout=stackLayout;horizontal=1;startSize=26;horizontalStack=0;resizeParent=1;resizeLast=0;collapsible=1;marginBottom=0;rounded=0;shadow=0;strokeWidth=1;" vertex="1" parent="WIyWlLk6GJQsqaUBKTNV-1">
          <mxGeometry x="5633" y="390" width="340" height="558" as="geometry">
            <mxRectangle x="340" y="380" width="170" height="26" as="alternateBounds" />
          </mxGeometry>
        </mxCell>
        <mxCell id="r1qEbPDYCdab6uhuSibT-225" value="`id` int(11) UNSIGNED NOT NULL,&#xa;  `ppdb_id` int(11) DEFAULT NULL,&#xa;  `media_sosial_2` varchar(100) DEFAULT NULL,&#xa;  `program_sekolah` varchar(100) NOT NULL,&#xa;  `fasilitas_pelayanan` varchar(100) NOT NULL,&#xa;  `jarak` varchar(100) NOT NULL,&#xa;  `uang_sekolah_terjangkau` varchar(100) NOT NULL,&#xa;  `fasilitas_lengkap` varchar(100) NOT NULL,&#xa;  `kebersihan` varchar(100) NOT NULL,&#xa;  `pelayanan_informasi` varchar(100) NOT NULL,&#xa;  `tenaga_pendidik_kompeten` varchar(100) NOT NULL,&#xa;  `tidak_pilih_fasilitas_pelayanan` varchar(100) NOT NULL,&#xa;  `1km_jarak` varchar(100) NOT NULL,&#xa;  `1_sampai_5km` varchar(100) NOT NULL,&#xa;  `6_sampai_10km` varchar(100) NOT NULL,&#xa;  `11_sampai_20km` varchar(100) NOT NULL,&#xa;  `21_sampai_30km` varchar(100) NOT NULL,&#xa;  `tidak_pilih_jarak` varchar(100) NOT NULL,&#xa;  `uang_pangkal` varchar(100) NOT NULL,&#xa;  `spp` varchar(100) NOT NULL,&#xa;  `tanda_biaya_tambahan` varchar(100) NOT NULL,&#xa;  `tidak_terjangkau` varchar(100) NOT NULL,&#xa;  `sederhana_dan_mudah` varchar(100) DEFAULT NULL,&#xa;  `standar_sama` varchar(100) DEFAULT NULL,&#xa;  `berbelit_belit` varchar(100) DEFAULT NULL,&#xa;  `tidak_murah` varchar(100) DEFAULT NULL,&#xa;  `merepotkan` varchar(100) DEFAULT NULL,&#xa;  `pendapat_saya` varchar(100) DEFAULT NULL,&#xa;  `program_7_habits` varchar(100) DEFAULT NULL,&#xa;  `prestasi_sekolah` varchar(100) DEFAULT NULL,&#xa;  `ekstrakulikuler` varchar(100) DEFAULT NULL,&#xa;  `booster_1` varchar(100) DEFAULT NULL,&#xa;  `booster_2` varchar(100) DEFAULT NULL,&#xa;  `booster_3` varchar(100) DEFAULT NULL,&#xa;  `belum_vaksin` varchar(100) DEFAULT NULL,&#xa;  `created_at` timestamp NULL DEFAULT NULL" style="text;align=left;verticalAlign=top;spacingLeft=4;spacingRight=4;overflow=hidden;rotatable=0;points=[[0,0.5],[1,0.5]];portConstraint=eastwest;" vertex="1" parent="r1qEbPDYCdab6uhuSibT-224">
          <mxGeometry y="26" width="340" height="524" as="geometry" />
        </mxCell>
        <mxCell id="r1qEbPDYCdab6uhuSibT-226" value="" style="line;html=1;strokeWidth=1;align=left;verticalAlign=middle;spacingTop=-1;spacingLeft=3;spacingRight=3;rotatable=0;labelPosition=right;points=[];portConstraint=eastwest;" vertex="1" parent="r1qEbPDYCdab6uhuSibT-224">
          <mxGeometry y="550" width="340" height="8" as="geometry" />
        </mxCell>
        <mxCell id="r1qEbPDYCdab6uhuSibT-227" value="" style="edgeStyle=orthogonalEdgeStyle;rounded=0;orthogonalLoop=1;jettySize=auto;html=1;entryX=0.001;entryY=0.509;entryDx=0;entryDy=0;exitX=1;exitY=0.345;exitDx=0;exitDy=0;exitPerimeter=0;entryPerimeter=0;" edge="1" parent="WIyWlLk6GJQsqaUBKTNV-1" source="r1qEbPDYCdab6uhuSibT-218" target="r1qEbPDYCdab6uhuSibT-222">
          <mxGeometry relative="1" as="geometry">
            <Array as="points" />
            <mxPoint x="4903" y="661.6500000000002" as="sourcePoint" />
            <mxPoint x="4968.619999999999" y="662.3420000000002" as="targetPoint" />
          </mxGeometry>
        </mxCell>
        <mxCell id="r1qEbPDYCdab6uhuSibT-228" value="" style="edgeStyle=orthogonalEdgeStyle;rounded=0;orthogonalLoop=1;jettySize=auto;html=1;entryX=0;entryY=0.5;entryDx=0;entryDy=0;exitX=1;exitY=0.222;exitDx=0;exitDy=0;exitPerimeter=0;" edge="1" parent="WIyWlLk6GJQsqaUBKTNV-1" source="r1qEbPDYCdab6uhuSibT-214" target="r1qEbPDYCdab6uhuSibT-218">
          <mxGeometry relative="1" as="geometry" />
        </mxCell>
        <mxCell id="r1qEbPDYCdab6uhuSibT-229" value="" style="edgeStyle=orthogonalEdgeStyle;rounded=0;orthogonalLoop=1;jettySize=auto;html=1;exitX=1.001;exitY=0.01;exitDx=0;exitDy=0;exitPerimeter=0;" edge="1" parent="WIyWlLk6GJQsqaUBKTNV-1" source="r1qEbPDYCdab6uhuSibT-231" target="r1qEbPDYCdab6uhuSibT-246">
          <mxGeometry relative="1" as="geometry" />
        </mxCell>
        <mxCell id="r1qEbPDYCdab6uhuSibT-230" value="PPDB SYSTEM" style="swimlane;fontStyle=0;align=center;verticalAlign=top;childLayout=stackLayout;horizontal=1;startSize=26;horizontalStack=0;resizeParent=1;resizeLast=0;collapsible=1;marginBottom=0;rounded=0;shadow=0;strokeWidth=1;" vertex="1" parent="WIyWlLk6GJQsqaUBKTNV-1">
          <mxGeometry x="2500" y="305" width="420" height="855" as="geometry">
            <mxRectangle x="130" y="380" width="160" height="26" as="alternateBounds" />
          </mxGeometry>
        </mxCell>
        <mxCell id="r1qEbPDYCdab6uhuSibT-231" value="  `id` int(10) NOT NULL,&#xa;  `registration_schedule_id` int(11) DEFAULT NULL,&#xa;  `document_no` varchar(191) NOT NULL,&#xa;  `document_status` int(11) NOT NULL,&#xa;  `id_user` int(11) NOT NULL,&#xa;  `school_site` varchar(100) NOT NULL,&#xa;  `stage` varchar(10) NOT NULL,&#xa;  `classes` varchar(10) NOT NULL,&#xa;  `student_status` varchar(191) NOT NULL,&#xa;  `fullname` varchar(191) NOT NULL,&#xa;  `gender` varchar(191) NOT NULL,&#xa;  `place_of_birth` varchar(191) NOT NULL,&#xa;  `date_of_birth` varchar(191) NOT NULL,&#xa;  `religion` varchar(191) NOT NULL,&#xa;  `nationality` varchar(191) NOT NULL,&#xa;  `address` varchar(191) NOT NULL,&#xa;  `home_phone` varchar(191) DEFAULT NULL,&#xa;  `hand_phone` varchar(191) NOT NULL,&#xa;  `school_origin` varchar(191) DEFAULT NULL,&#xa;  `family_card` text DEFAULT NULL,&#xa;  `birth_certificate` text DEFAULT NULL,&#xa;  `last_report` text DEFAULT NULL,&#xa;  `academic_certificate` text DEFAULT NULL,&#xa;  `kia_book` text DEFAULT NULL,&#xa;  `file_additional` text DEFAULT NULL,&#xa;  `medco_employee` varchar(100) DEFAULT NULL,&#xa;  `medco_employee_file` text DEFAULT NULL,&#xa;  `ppdb_discount` varchar(100) DEFAULT NULL,&#xa;  `studied_before` int(11) NOT NULL DEFAULT 0,&#xa;  `file_additional_satu` text DEFAULT NULL,&#xa;  `file_additional_dua` text DEFAULT NULL,&#xa;  `file_additional_tiga` text DEFAULT NULL,&#xa;  `file_additional_empat` text DEFAULT NULL,&#xa;  `file_additional_lima` text DEFAULT NULL,&#xa;  `tingkat_satu` varchar(191) DEFAULT NULL,&#xa;  `tingkat_dua` varchar(191) DEFAULT NULL,&#xa;  `tingkat_tiga` varchar(191) DEFAULT NULL,&#xa;  `tingkat_empat` varchar(191) DEFAULT NULL,&#xa;  `tingkat_lima` varchar(191) DEFAULT NULL,&#xa;  `deskripsi_satu` varchar(191) DEFAULT NULL,&#xa;  `deskripsi_dua` varchar(191) DEFAULT NULL,&#xa;  `deskripsi_tiga` varchar(191) DEFAULT NULL,&#xa;  `deskripsi_empat` varchar(191) DEFAULT NULL,&#xa;  `deskripsi_lima` varchar(191) DEFAULT NULL,&#xa;  `fhoto_siswa` longtext DEFAULT NULL,&#xa;  `status_siswa` varchar(191) DEFAULT NULL,&#xa;  `gaji` varchar(191) DEFAULT NULL,&#xa;  `slip_gaji_parent` varchar(191) DEFAULT NULL,&#xa;  `nis` varchar(250) NOT NULL,&#xa;  `ppdb_id` int(50) DEFAULT NULL,&#xa;  `updated_by` varchar(25) DEFAULT NULL,&#xa;  `created_at` timestamp NULL DEFAULT NULL,&#xa;  `updated_at` timestamp NULL DEFAULT NULL,&#xa;  `rejected_at` timestamp NULL DEFAULT NULL,&#xa;  `rejected_by` int(6) DEFAULT NULL" style="text;align=left;verticalAlign=top;spacingLeft=4;spacingRight=4;overflow=hidden;rotatable=0;points=[[0,0.5],[1,0.5]];portConstraint=eastwest;" vertex="1" parent="r1qEbPDYCdab6uhuSibT-230">
          <mxGeometry y="26" width="420" height="784" as="geometry" />
        </mxCell>
        <mxCell id="r1qEbPDYCdab6uhuSibT-232" value="" style="line;html=1;strokeWidth=1;align=left;verticalAlign=middle;spacingTop=-1;spacingLeft=3;spacingRight=3;rotatable=0;labelPosition=right;points=[];portConstraint=eastwest;" vertex="1" parent="r1qEbPDYCdab6uhuSibT-230">
          <mxGeometry y="810" width="420" height="40" as="geometry" />
        </mxCell>
        <mxCell id="r1qEbPDYCdab6uhuSibT-233" value="" style="edgeStyle=orthogonalEdgeStyle;rounded=0;orthogonalLoop=1;jettySize=auto;html=1;" edge="1" parent="WIyWlLk6GJQsqaUBKTNV-1" source="r1qEbPDYCdab6uhuSibT-234" target="r1qEbPDYCdab6uhuSibT-247">
          <mxGeometry relative="1" as="geometry">
            <Array as="points">
              <mxPoint x="3662" y="380" />
              <mxPoint x="3662" y="365" />
            </Array>
          </mxGeometry>
        </mxCell>
        <mxCell id="r1qEbPDYCdab6uhuSibT-234" value="PPDB INTERVIEW SYSTEM" style="swimlane;fontStyle=0;align=center;verticalAlign=top;childLayout=stackLayout;horizontal=1;startSize=26;horizontalStack=0;resizeParent=1;resizeLast=0;collapsible=1;marginBottom=0;rounded=0;shadow=0;strokeWidth=1;" vertex="1" parent="WIyWlLk6GJQsqaUBKTNV-1">
          <mxGeometry x="2950" y="367" width="360" height="590" as="geometry">
            <mxRectangle x="-773" y="337" width="160" height="26" as="alternateBounds" />
          </mxGeometry>
        </mxCell>
        <mxCell id="r1qEbPDYCdab6uhuSibT-235" value="`id` int(10) NOT NULL,&#xa;  `ppdb_id` int(10) NOT NULL,&#xa;  `school_recomendation_result` int(11) NOT NULL DEFAULT 0,&#xa;  `school_recomendation_file` text DEFAULT NULL,&#xa;  `school_recomendation_note` text DEFAULT NULL,&#xa;  `is_submited` int(11) NOT NULL DEFAULT 0,&#xa;  `interview_result` int(3) NOT NULL,&#xa;  `interview_result_file` text NOT NULL,&#xa;  `interview_result_note` text DEFAULT NULL,&#xa;  `kesiapan_value` int(11) NOT NULL,&#xa;  `kesiapan_file` text DEFAULT NULL,&#xa;  `kesiapan_result` int(11) NOT NULL,&#xa;  `kesiapan_result_note` text DEFAULT NULL,&#xa;  `psikotest_value` int(10) NOT NULL,&#xa;  `psikotest_file` text DEFAULT NULL,&#xa;  `psikotest_result` int(10) NOT NULL,&#xa;  `psikotest_result_note` text DEFAULT NULL,&#xa;  `academic_value` int(10) NOT NULL,&#xa;  `academic_file` text DEFAULT NULL,&#xa;  `academic_result` int(10) NOT NULL,&#xa;  `academic_result_note` text DEFAULT NULL,&#xa;  `interview_parent_summary` text DEFAULT NULL,&#xa;  `interview_parent_file` text DEFAULT NULL,&#xa;  `interview_parent_result` int(10) NOT NULL,&#xa;  `interview_parent_result_note` text DEFAULT NULL,&#xa;  `interview_student_summary` text DEFAULT NULL,&#xa;  `interview_student_file` text DEFAULT NULL,&#xa;  `interview_student_result` int(10) NOT NULL,&#xa;  `interview_student_result_note` text DEFAULT NULL,&#xa;  `observasi_value` int(10) NOT NULL,&#xa;  `observasi_summary` text DEFAULT NULL,&#xa;  `observasi_file` text DEFAULT NULL,&#xa;  `observasi_result` int(10) NOT NULL,&#xa;  `observasi_result_note` text DEFAULT NULL,&#xa;  `created_at` timestamp NULL DEFAULT NULL,&#xa;  `updated_at` timestamp NULL DEFAULT NULL,&#xa;  `deleted_at` timestamp NULL DEFAULT NULL" style="text;align=left;verticalAlign=top;spacingLeft=4;spacingRight=4;overflow=hidden;rotatable=0;points=[[0,0.5],[1,0.5]];portConstraint=eastwest;" vertex="1" parent="r1qEbPDYCdab6uhuSibT-234">
          <mxGeometry y="26" width="360" height="534" as="geometry" />
        </mxCell>
        <mxCell id="r1qEbPDYCdab6uhuSibT-236" value="" style="line;html=1;strokeWidth=1;align=left;verticalAlign=middle;spacingTop=-1;spacingLeft=3;spacingRight=3;rotatable=0;labelPosition=right;points=[];portConstraint=eastwest;" vertex="1" parent="r1qEbPDYCdab6uhuSibT-234">
          <mxGeometry y="560" width="360" height="20" as="geometry" />
        </mxCell>
        <mxCell id="r1qEbPDYCdab6uhuSibT-237" value="" style="edgeStyle=orthogonalEdgeStyle;rounded=0;orthogonalLoop=1;jettySize=auto;html=1;exitX=1.009;exitY=0.05;exitDx=0;exitDy=0;exitPerimeter=0;" edge="1" parent="WIyWlLk6GJQsqaUBKTNV-1" source="r1qEbPDYCdab6uhuSibT-238" target="r1qEbPDYCdab6uhuSibT-248">
          <mxGeometry relative="1" as="geometry" />
        </mxCell>
        <mxCell id="r1qEbPDYCdab6uhuSibT-238" value="PAYMENT SYSTEM" style="swimlane;fontStyle=0;align=center;verticalAlign=top;childLayout=stackLayout;horizontal=1;startSize=26;horizontalStack=0;resizeParent=1;resizeLast=0;collapsible=1;marginBottom=0;rounded=0;shadow=0;strokeWidth=1;" vertex="1" parent="WIyWlLk6GJQsqaUBKTNV-1">
          <mxGeometry x="3353" y="410" width="310" height="260" as="geometry">
            <mxRectangle x="130" y="380" width="160" height="26" as="alternateBounds" />
          </mxGeometry>
        </mxCell>
        <mxCell id="r1qEbPDYCdab6uhuSibT-239" value="  `id` int(10) UNSIGNED NOT NULL,&#xa;  `ppdb_id` int(10) UNSIGNED NOT NULL,&#xa;  `payment_type` varchar(100) NOT NULL,&#xa;  `payment_code` varchar(100) NOT NULL,&#xa;  `confirmation_status` int(11) NOT NULL DEFAULT 0,&#xa;  `date_send` date NOT NULL,&#xa;  `bank_owner_name` varchar(150) NOT NULL,&#xa;  `bank_code` varchar(100) NOT NULL,&#xa;  `account_number` varchar(100) NOT NULL,&#xa;  `cost` int(11) NOT NULL,&#xa;  `image_confirmation` varchar(300) NOT NULL,&#xa;  `created_at` timestamp NULL DEFAULT NULL,&#xa;  `updated_at` timestamp NULL DEFAULT NULL,&#xa;  `updated_by` int(11) DEFAULT NULL" style="text;align=left;verticalAlign=top;spacingLeft=4;spacingRight=4;overflow=hidden;rotatable=0;points=[[0,0.5],[1,0.5]];portConstraint=eastwest;" vertex="1" parent="r1qEbPDYCdab6uhuSibT-238">
          <mxGeometry y="26" width="310" height="214" as="geometry" />
        </mxCell>
        <mxCell id="r1qEbPDYCdab6uhuSibT-240" value="" style="line;html=1;strokeWidth=1;align=left;verticalAlign=middle;spacingTop=-1;spacingLeft=3;spacingRight=3;rotatable=0;labelPosition=right;points=[];portConstraint=eastwest;" vertex="1" parent="r1qEbPDYCdab6uhuSibT-238">
          <mxGeometry y="240" width="310" height="8" as="geometry" />
        </mxCell>
        <mxCell id="r1qEbPDYCdab6uhuSibT-241" value="" style="edgeStyle=orthogonalEdgeStyle;rounded=0;orthogonalLoop=1;jettySize=auto;html=1;" edge="1" parent="WIyWlLk6GJQsqaUBKTNV-1" source="r1qEbPDYCdab6uhuSibT-242" target="r1qEbPDYCdab6uhuSibT-249">
          <mxGeometry relative="1" as="geometry" />
        </mxCell>
        <mxCell id="r1qEbPDYCdab6uhuSibT-242" value="REREGISTER SYSTEM" style="swimlane;fontStyle=0;align=center;verticalAlign=top;childLayout=stackLayout;horizontal=1;startSize=26;horizontalStack=0;resizeParent=1;resizeLast=0;collapsible=1;marginBottom=0;rounded=0;shadow=0;strokeWidth=1;" vertex="1" parent="WIyWlLk6GJQsqaUBKTNV-1">
          <mxGeometry x="3703" y="475" width="280" height="155" as="geometry">
            <mxRectangle x="130" y="380" width="160" height="26" as="alternateBounds" />
          </mxGeometry>
        </mxCell>
        <mxCell id="r1qEbPDYCdab6uhuSibT-243" value=" `id` int(10) UNSIGNED NOT NULL,&#xa;  `file_additionalsatu` text DEFAULT NULL,&#xa;  `file_additionaldua` text DEFAULT NULL,&#xa;  `ppdb_id` int(11) DEFAULT NULL,&#xa;  `medco_employee_file` text DEFAULT NULL,&#xa;  `created_at` timestamp NULL DEFAULT &#39;0000-00-00 00:00:00&#39; ON UPDATE current_timestamp(),&#xa;  `updated_at` timestamp NULL DEFAULT &#39;0000-00-00 00:00:00&#39;" style="text;align=left;verticalAlign=top;spacingLeft=4;spacingRight=4;overflow=hidden;rotatable=0;points=[[0,0.5],[1,0.5]];portConstraint=eastwest;" vertex="1" parent="r1qEbPDYCdab6uhuSibT-242">
          <mxGeometry y="26" width="280" height="114" as="geometry" />
        </mxCell>
        <mxCell id="r1qEbPDYCdab6uhuSibT-244" value="" style="line;html=1;strokeWidth=1;align=left;verticalAlign=middle;spacingTop=-1;spacingLeft=3;spacingRight=3;rotatable=0;labelPosition=right;points=[];portConstraint=eastwest;" vertex="1" parent="r1qEbPDYCdab6uhuSibT-242">
          <mxGeometry y="140" width="280" height="8" as="geometry" />
        </mxCell>
        <mxCell id="r1qEbPDYCdab6uhuSibT-245" value="" style="endArrow=block;endSize=10;endFill=0;shadow=0;strokeWidth=1;rounded=0;edgeStyle=elbowEdgeStyle;elbow=vertical;" edge="1" parent="WIyWlLk6GJQsqaUBKTNV-1" source="r1qEbPDYCdab6uhuSibT-213" target="r1qEbPDYCdab6uhuSibT-246">
          <mxGeometry width="160" relative="1" as="geometry">
            <mxPoint x="4193" y="390" as="sourcePoint" />
            <mxPoint x="4023" y="288" as="targetPoint" />
          </mxGeometry>
        </mxCell>
        <mxCell id="r1qEbPDYCdab6uhuSibT-246" value="" style="shape=waypoint;sketch=0;size=6;pointerEvents=1;points=[];fillColor=default;resizable=0;rotatable=0;perimeter=centerPerimeter;snapToPoint=1;verticalAlign=top;fontStyle=0;startSize=26;rounded=0;shadow=0;strokeWidth=1;" vertex="1" parent="WIyWlLk6GJQsqaUBKTNV-1">
          <mxGeometry x="4013" y="330" width="20" height="20" as="geometry" />
        </mxCell>
        <mxCell id="r1qEbPDYCdab6uhuSibT-247" value="" style="shape=waypoint;sketch=0;size=6;pointerEvents=1;points=[];fillColor=default;resizable=0;rotatable=0;perimeter=centerPerimeter;snapToPoint=1;verticalAlign=top;fontStyle=0;startSize=26;rounded=0;shadow=0;strokeWidth=1;" vertex="1" parent="WIyWlLk6GJQsqaUBKTNV-1">
          <mxGeometry x="4013" y="355" width="20" height="20" as="geometry" />
        </mxCell>
        <mxCell id="r1qEbPDYCdab6uhuSibT-248" value="" style="shape=waypoint;sketch=0;size=6;pointerEvents=1;points=[];fillColor=default;resizable=0;rotatable=0;perimeter=centerPerimeter;snapToPoint=1;verticalAlign=top;fontStyle=0;startSize=26;rounded=0;shadow=0;strokeWidth=1;" vertex="1" parent="WIyWlLk6GJQsqaUBKTNV-1">
          <mxGeometry x="4013" y="360" width="20" height="20" as="geometry" />
        </mxCell>
        <mxCell id="r1qEbPDYCdab6uhuSibT-249" value="" style="shape=waypoint;sketch=0;size=6;pointerEvents=1;points=[];fillColor=default;resizable=0;rotatable=0;perimeter=centerPerimeter;snapToPoint=1;verticalAlign=top;fontStyle=0;startSize=26;rounded=0;shadow=0;strokeWidth=1;" vertex="1" parent="WIyWlLk6GJQsqaUBKTNV-1">
          <mxGeometry x="4013" y="415" width="20" height="20" as="geometry" />
        </mxCell>
      </root>
    </mxGraphModel>
  </diagram>
</mxfile>
